<svg width="23" height="23" viewBox="0 0 23 23" fill="none" xmlns="http://www.w3.org/2000/svg">
<path fill-rule="evenodd" clip-rule="evenodd" d="M0.0599679 0.487526C0.099558 0.392118 0.157583 0.305456 0.230718 0.232505L0.232505 0.230718C0.305456 0.157583 0.392118 0.099558 0.487526 0.0599679C0.582932 0.0203791 0.685214 0 0.788516 0C0.891818 0 0.994101 0.0203791 1.08951 0.0599679C1.18491 0.099558 1.27158 0.157582 1.34453 0.230718L11.5005 10.3905L21.6557 0.231478C21.7288 0.158408 21.8155 0.100441 21.911 0.0608859C22.0066 0.0213063 22.109 0.00093472 22.2124 0.00093472C22.3158 0.00093472 22.4183 0.0213063 22.5138 0.0608859C22.6094 0.100463 22.6962 0.158474 22.7693 0.231612C22.8425 0.304753 22.9005 0.391577 22.9401 0.487121C22.9796 0.582666 23 0.68508 23 0.788516C23 0.891952 22.9796 0.994366 22.9401 1.08991C22.9005 1.1854 22.8424 1.27231 22.7693 1.34542L12.6104 11.5005L22.7694 21.6556C22.8425 21.7287 22.9005 21.8155 22.9401 21.911C22.9796 22.0066 23 22.109 23 22.2124C23 22.3159 22.9796 22.4183 22.9401 22.5138C22.9005 22.6094 22.8425 22.6962 22.7693 22.7693C22.6962 22.8425 22.6094 22.9005 22.5138 22.9401C22.4183 22.9796 22.3159 23 22.2124 23C22.109 23 22.0066 22.9796 21.911 22.9401C21.8155 22.9005 21.7286 22.8424 21.6555 22.7693L11.5005 12.6104L1.34533 22.7694C1.27221 22.8425 1.18541 22.9005 1.08991 22.9401C0.994366 22.9796 0.891952 23 0.788516 23C0.68508 23 0.582666 22.9796 0.487121 22.9401C0.391577 22.9005 0.304753 22.8425 0.231612 22.7693C0.158474 22.6962 0.100463 22.6094 0.0608859 22.5138C0.0213063 22.4183 0.00093472 22.3158 0.00093472 22.2124C0.00093472 22.109 0.0213063 22.0066 0.0608859 21.911C0.100441 21.8155 0.158541 21.7286 0.231612 21.6555L10.3905 11.5005L0.231479 1.34529L0.230718 1.34453C0.157582 1.27158 0.099558 1.18491 0.0599679 1.08951C0.0203791 0.994101 0 0.891818 0 0.788516C0 0.685214 0.0203791 0.582932 0.0599679 0.487526Z" fill="black"/>
</svg>
