<svg width="25" height="25" viewBox="0 0 25 25" fill="none" xmlns="http://www.w3.org/2000/svg">
<mask id="path-1-outside-1_104_437" maskUnits="userSpaceOnUse" x="0" y="0" width="25" height="25" fill="black">
<rect fill="white" width="25" height="25"/>
<path fill-rule="evenodd" clip-rule="evenodd" d="M1.05997 1.48753C1.09956 1.39212 1.15758 1.30546 1.23072 1.23251L1.23251 1.23072C1.30546 1.15758 1.39212 1.09956 1.48753 1.05997C1.58293 1.02038 1.68521 1 1.78852 1C1.89182 1 1.9941 1.02038 2.08951 1.05997C2.18491 1.09956 2.27158 1.15758 2.34453 1.23072L12.5005 11.3905L22.6557 1.23148C22.7288 1.15841 22.8155 1.10044 22.911 1.06089C23.0066 1.02131 23.109 1.00093 23.2124 1.00093C23.3158 1.00093 23.4183 1.02131 23.5138 1.06089C23.6094 1.10046 23.6962 1.15847 23.7693 1.23161C23.8425 1.30475 23.9005 1.39158 23.9401 1.48712C23.9796 1.58267 24 1.68508 24 1.78852C24 1.89195 23.9796 1.99437 23.9401 2.08991C23.9005 2.1854 23.8424 2.27231 23.7693 2.34542L13.6104 12.5005L23.7694 22.6556C23.8425 22.7287 23.9005 22.8155 23.9401 22.911C23.9796 23.0066 24 23.109 24 23.2124C24 23.3159 23.9796 23.4183 23.9401 23.5138C23.9005 23.6094 23.8425 23.6962 23.7693 23.7693C23.6962 23.8425 23.6094 23.9005 23.5138 23.9401C23.4183 23.9796 23.3159 24 23.2124 24C23.109 24 23.0066 23.9796 22.911 23.9401C22.8155 23.9005 22.7286 23.8424 22.6555 23.7693L12.5005 13.6104L2.34533 23.7694C2.27221 23.8425 2.18541 23.9005 2.08991 23.9401C1.99437 23.9796 1.89195 24 1.78852 24C1.68508 24 1.58267 23.9796 1.48712 23.9401C1.39158 23.9005 1.30475 23.8425 1.23161 23.7693C1.15847 23.6962 1.10046 23.6094 1.06089 23.5138C1.02131 23.4183 1.00093 23.3158 1.00093 23.2124C1.00093 23.109 1.02131 23.0066 1.06089 22.911C1.10044 22.8155 1.15854 22.7286 1.23161 22.6555L11.3905 12.5005L1.23148 2.34529L1.23072 2.34453C1.15758 2.27158 1.09956 2.18491 1.05997 2.08951C1.02038 1.9941 1 1.89182 1 1.78852C1 1.68521 1.02038 1.58293 1.05997 1.48753Z"/>
</mask>
<path fill-rule="evenodd" clip-rule="evenodd" d="M1.05997 1.48753C1.09956 1.39212 1.15758 1.30546 1.23072 1.23251L1.23251 1.23072C1.30546 1.15758 1.39212 1.09956 1.48753 1.05997C1.58293 1.02038 1.68521 1 1.78852 1C1.89182 1 1.9941 1.02038 2.08951 1.05997C2.18491 1.09956 2.27158 1.15758 2.34453 1.23072L12.5005 11.3905L22.6557 1.23148C22.7288 1.15841 22.8155 1.10044 22.911 1.06089C23.0066 1.02131 23.109 1.00093 23.2124 1.00093C23.3158 1.00093 23.4183 1.02131 23.5138 1.06089C23.6094 1.10046 23.6962 1.15847 23.7693 1.23161C23.8425 1.30475 23.9005 1.39158 23.9401 1.48712C23.9796 1.58267 24 1.68508 24 1.78852C24 1.89195 23.9796 1.99437 23.9401 2.08991C23.9005 2.1854 23.8424 2.27231 23.7693 2.34542L13.6104 12.5005L23.7694 22.6556C23.8425 22.7287 23.9005 22.8155 23.9401 22.911C23.9796 23.0066 24 23.109 24 23.2124C24 23.3159 23.9796 23.4183 23.9401 23.5138C23.9005 23.6094 23.8425 23.6962 23.7693 23.7693C23.6962 23.8425 23.6094 23.9005 23.5138 23.9401C23.4183 23.9796 23.3159 24 23.2124 24C23.109 24 23.0066 23.9796 22.911 23.9401C22.8155 23.9005 22.7286 23.8424 22.6555 23.7693L12.5005 13.6104L2.34533 23.7694C2.27221 23.8425 2.18541 23.9005 2.08991 23.9401C1.99437 23.9796 1.89195 24 1.78852 24C1.68508 24 1.58267 23.9796 1.48712 23.9401C1.39158 23.9005 1.30475 23.8425 1.23161 23.7693C1.15847 23.6962 1.10046 23.6094 1.06089 23.5138C1.02131 23.4183 1.00093 23.3158 1.00093 23.2124C1.00093 23.109 1.02131 23.0066 1.06089 22.911C1.10044 22.8155 1.15854 22.7286 1.23161 22.6555L11.3905 12.5005L1.23148 2.34529L1.23072 2.34453C1.15758 2.27158 1.09956 2.18491 1.05997 2.08951C1.02038 1.9941 1 1.89182 1 1.78852C1 1.68521 1.02038 1.58293 1.05997 1.48753Z" fill="black"/>
<path d="M1.23072 1.23251L1.44258 1.44491L1.44285 1.44464L1.23072 1.23251ZM1.05997 1.48753L0.782877 1.37255L0.782877 1.37255L1.05997 1.48753ZM1.23251 1.23072L1.44464 1.44285L1.44491 1.44258L1.23251 1.23072ZM1.48753 1.05997L1.37255 0.782877L1.37255 0.782877L1.48753 1.05997ZM2.08951 1.05997L2.20449 0.782877L2.20449 0.782877L2.08951 1.05997ZM2.34453 1.23072L2.13212 1.44258L2.13235 1.44281L2.34453 1.23072ZM12.5005 11.3905L12.2883 11.6026L12.5005 11.8148L12.7126 11.6026L12.5005 11.3905ZM22.6557 1.23148L22.4436 1.0193L22.4435 1.01939L22.6557 1.23148ZM22.911 1.06089L22.7962 0.783722L22.7962 0.783723L22.911 1.06089ZM23.5138 1.06089L23.6286 0.783722L23.6286 0.783722L23.5138 1.06089ZM23.7693 1.23161L23.5572 1.44374L23.5572 1.44374L23.7693 1.23161ZM23.9401 1.48712L24.2172 1.37232L24.2172 1.37232L23.9401 1.48712ZM23.9401 2.08991L23.6629 1.97511L23.6629 1.97511L23.9401 2.08991ZM23.7693 2.34542L23.9814 2.55759L23.9815 2.5575L23.7693 2.34542ZM13.6104 12.5005L13.3983 12.2883L13.1861 12.5005L13.3983 12.7126L13.6104 12.5005ZM23.7694 22.6556L23.9816 22.4435L23.9815 22.4434L23.7694 22.6556ZM23.9401 22.911L24.2172 22.7962L24.2172 22.7962L23.9401 22.911ZM23.9401 23.5138L24.2172 23.6286L24.2172 23.6286L23.9401 23.5138ZM23.7693 23.7693L23.5572 23.5572L23.5572 23.5572L23.7693 23.7693ZM23.5138 23.9401L23.6286 24.2172L23.6286 24.2172L23.5138 23.9401ZM22.911 23.9401L23.0258 23.6629L23.0258 23.6629L22.911 23.9401ZM22.6555 23.7693L22.4433 23.9814L22.4434 23.9815L22.6555 23.7693ZM12.5005 13.6104L12.7126 13.3983L12.5005 13.1861L12.2883 13.3983L12.5005 13.6104ZM2.34533 23.7694L2.55742 23.9816L2.5575 23.9815L2.34533 23.7694ZM2.08991 23.9401L1.97511 23.6629L1.97511 23.6629L2.08991 23.9401ZM1.48712 23.9401L1.37232 24.2172L1.37232 24.2172L1.48712 23.9401ZM1.23161 23.7693L1.44374 23.5572L1.44374 23.5572L1.23161 23.7693ZM1.06089 23.5138L0.783722 23.6286L0.783722 23.6286L1.06089 23.5138ZM1.06089 22.911L0.783723 22.7962L0.783722 22.7962L1.06089 22.911ZM1.23161 22.6555L1.01952 22.4433L1.01943 22.4434L1.23161 22.6555ZM11.3905 12.5005L11.6026 12.7126L11.8148 12.5005L11.6026 12.2883L11.3905 12.5005ZM1.23148 2.34529L1.44357 2.13311L1.44333 2.13287L1.23148 2.34529ZM1.23072 2.34453L1.01885 2.55693L1.01887 2.55694L1.23072 2.34453ZM1.05997 2.08951L0.782877 2.20449L0.782877 2.20449L1.05997 2.08951ZM1.01885 1.02011C0.917781 1.12092 0.837591 1.24069 0.782877 1.37255L1.33706 1.60251C1.36153 1.54355 1.39738 1.48999 1.44258 1.44491L1.01885 1.02011ZM1.02037 1.01859L1.01859 1.02037L1.44285 1.44464L1.44464 1.44285L1.02037 1.01859ZM1.37255 0.782877C1.24069 0.837591 1.12092 0.917781 1.02011 1.01885L1.44491 1.44258C1.48999 1.39738 1.54355 1.36153 1.60251 1.33706L1.37255 0.782877ZM1.78852 0.7C1.64576 0.7 1.5044 0.728163 1.37255 0.782877L1.60251 1.33706C1.66146 1.31259 1.72467 1.3 1.78852 1.3V0.7ZM2.20449 0.782877C2.07263 0.728163 1.93128 0.7 1.78852 0.7V1.3C1.85236 1.3 1.91557 1.31259 1.97453 1.33706L2.20449 0.782877ZM2.55693 1.01886C2.45611 0.917781 2.33634 0.837591 2.20449 0.782877L1.97453 1.33706C2.03349 1.36153 2.08704 1.39738 2.13213 1.44258L2.55693 1.01886ZM12.7126 11.1784L2.5567 1.01863L2.13235 1.44281L12.2883 11.6026L12.7126 11.1784ZM22.4435 1.01939L12.2883 11.1784L12.7126 11.6026L22.8678 1.44357L22.4435 1.01939ZM22.7962 0.783723C22.6644 0.838344 22.5445 0.91839 22.4436 1.0193L22.8677 1.44366C22.913 1.39843 22.9667 1.36254 23.0258 1.33805L22.7962 0.783723ZM23.2124 0.700935C23.0696 0.700935 22.9282 0.729066 22.7962 0.783722L23.0258 1.33805C23.085 1.31355 23.1484 1.30093 23.2124 1.30093V0.700935ZM23.6286 0.783722C23.4967 0.729066 23.3552 0.700935 23.2124 0.700935V1.30093C23.2765 1.30093 23.3399 1.31355 23.399 1.33805L23.6286 0.783722ZM23.9815 1.01948C23.8805 0.918486 23.7606 0.838376 23.6286 0.783722L23.399 1.33805C23.4582 1.36255 23.5119 1.39846 23.5572 1.44374L23.9815 1.01948ZM24.2172 1.37232C24.1626 1.24037 24.0824 1.12048 23.9815 1.01948L23.5572 1.44374C23.6025 1.48903 23.6384 1.54278 23.6629 1.60193L24.2172 1.37232ZM24.3 1.78852C24.3 1.64569 24.2719 1.50426 24.2172 1.37232L23.6629 1.60193C23.6874 1.66107 23.7 1.72448 23.7 1.78852H24.3ZM24.2172 2.20471C24.2719 2.07277 24.3 1.93135 24.3 1.78852H23.7C23.7 1.85256 23.6874 1.91596 23.6629 1.97511L24.2172 2.20471ZM23.9815 2.5575C24.0824 2.4566 24.1626 2.33665 24.2172 2.20471L23.6629 1.97511C23.6384 2.03414 23.6024 2.08802 23.5571 2.13334L23.9815 2.5575ZM13.8225 12.7126L23.9814 2.55759L23.5572 2.13325L13.3983 12.2883L13.8225 12.7126ZM23.9815 22.4434L13.8225 12.2883L13.3983 12.7126L23.5573 22.8678L23.9815 22.4434ZM24.2172 22.7962C24.1626 22.6643 24.0825 22.5445 23.9816 22.4435L23.5573 22.8677C23.6025 22.913 23.6384 22.9667 23.6629 23.0258L24.2172 22.7962ZM24.3 23.2124C24.3 23.0696 24.2719 22.9282 24.2172 22.7962L23.6629 23.0258C23.6874 23.085 23.7 23.1484 23.7 23.2124H24.3ZM24.2172 23.6286C24.2719 23.4967 24.3 23.3553 24.3 23.2124H23.7C23.7 23.2765 23.6874 23.3399 23.6629 23.399L24.2172 23.6286ZM23.9815 23.9815C24.0825 23.8805 24.1626 23.7606 24.2172 23.6286L23.6629 23.399C23.6384 23.4581 23.6025 23.5119 23.5572 23.5572L23.9815 23.9815ZM23.6286 24.2172C23.7606 24.1626 23.8805 24.0825 23.9815 23.9815L23.5572 23.5572C23.5119 23.6025 23.4581 23.6384 23.399 23.6629L23.6286 24.2172ZM23.2124 24.3C23.3553 24.3 23.4967 24.2719 23.6286 24.2172L23.399 23.6629C23.3399 23.6874 23.2765 23.7 23.2124 23.7V24.3ZM22.7962 24.2172C22.9282 24.2719 23.0696 24.3 23.2124 24.3V23.7C23.1484 23.7 23.085 23.6874 23.0258 23.6629L22.7962 24.2172ZM22.4434 23.9815C22.5443 24.0824 22.6643 24.1626 22.7962 24.2172L23.0258 23.6629C22.9668 23.6384 22.9129 23.6024 22.8676 23.5571L22.4434 23.9815ZM12.2883 13.8225L22.4433 23.9814L22.8677 23.5572L12.7126 13.3983L12.2883 13.8225ZM2.5575 23.9815L12.7126 13.8225L12.2883 13.3983L2.13315 23.5573L2.5575 23.9815ZM2.20471 24.2172C2.33661 24.1626 2.45645 24.0825 2.55742 23.9816L2.13323 23.5572C2.08796 23.6025 2.03422 23.6384 1.97511 23.6629L2.20471 24.2172ZM1.78852 24.3C1.93135 24.3 2.07277 24.2719 2.20471 24.2172L1.97511 23.6629C1.91596 23.6874 1.85256 23.7 1.78852 23.7V24.3ZM1.37232 24.2172C1.50426 24.2719 1.64569 24.3 1.78852 24.3V23.7C1.72448 23.7 1.66107 23.6874 1.60193 23.6629L1.37232 24.2172ZM1.01948 23.9815C1.12048 24.0824 1.24037 24.1626 1.37232 24.2172L1.60193 23.6629C1.54278 23.6384 1.48903 23.6025 1.44374 23.5572L1.01948 23.9815ZM0.783722 23.6286C0.838376 23.7606 0.918486 23.8805 1.01948 23.9815L1.44374 23.5572C1.39846 23.5119 1.36255 23.4582 1.33805 23.399L0.783722 23.6286ZM0.700935 23.2124C0.700935 23.3552 0.729066 23.4967 0.783722 23.6286L1.33805 23.399C1.31355 23.3399 1.30093 23.2765 1.30093 23.2124H0.700935ZM0.783722 22.7962C0.729066 22.9282 0.700935 23.0696 0.700935 23.2124H1.30093C1.30093 23.1484 1.31355 23.085 1.33805 23.0258L0.783722 22.7962ZM1.01943 22.4434C0.918576 22.5443 0.838373 22.6643 0.783723 22.7962L1.33805 23.0258C1.36251 22.9668 1.39851 22.9129 1.44379 22.8676L1.01943 22.4434ZM11.1784 12.2883L1.01952 22.4433L1.4437 22.8677L11.6026 12.7126L11.1784 12.2883ZM1.01939 2.55746L11.1784 12.7126L11.6026 12.2883L1.44357 2.13311L1.01939 2.55746ZM1.01887 2.55694L1.01963 2.5577L1.44333 2.13287L1.44257 2.13211L1.01887 2.55694ZM0.782877 2.20449C0.837591 2.33634 0.917781 2.45611 1.01885 2.55693L1.44258 2.13213C1.39738 2.08704 1.36153 2.03349 1.33706 1.97453L0.782877 2.20449ZM0.7 1.78852C0.7 1.93128 0.728163 2.07263 0.782877 2.20449L1.33706 1.97453C1.31259 1.91557 1.3 1.85236 1.3 1.78852H0.7ZM0.782877 1.37255C0.728163 1.5044 0.7 1.64576 0.7 1.78852H1.3C1.3 1.72467 1.31259 1.66146 1.33706 1.60251L0.782877 1.37255Z" fill="black" mask="url(#path-1-outside-1_104_437)"/>
</svg>
