<svg class="svg-icon" style="width: 1em; height: 1em;vertical-align: middle;fill: currentColor;overflow: hidden;" viewBox="0 0 1024 1024" version="1.1" xmlns="http://www.w3.org/2000/svg"><path d="M819.780253 175.800891h-181.734374v-83.877056c0-15.427508-12.505922-27.958266-27.960524-27.958266h-195.714636c-15.427508 0-27.960524 12.533016-27.960524 27.958266v83.877056H204.675821c-15.427508 0-27.958266 12.533016-27.958266 27.958266 0 15.427508 12.533016 27.960524 27.958266 27.960524h27.960524v698.981488c0 15.42525 12.533016 27.958266 27.958266 27.958266h503.266852c15.454602 0 27.960524-12.533016 27.960524-27.958266V231.719681h27.958266c15.454602 0 27.960524-12.533016 27.960524-27.960524 0-15.42525-12.505922-27.958266-27.960524-27.958266zM442.331243 119.882101h139.795846v55.91879h-139.795846V119.882101z m293.569696 782.858544H288.555135V231.719681h447.348062v671.020964z" fill="#040000" /><path d="M428.350981 846.821855c15.454602 0 27.960524-12.533016 27.960524-27.960524V343.557261c0-15.427508-12.505922-27.958266-27.960524-27.958266-15.42525 0-27.958266 12.533016-27.958266 27.958266v475.306328c0 15.427508 12.533016 27.958266 27.958266 27.958266zM596.105093 846.821855c15.454602 0 27.960524-12.533016 27.960524-27.960524V343.557261c0-15.427508-12.505922-27.958266-27.960524-27.958266-15.427508 0-27.960524 12.533016-27.960524 27.958266v475.306328c0.002258 15.427508 12.533016 27.958266 27.960524 27.958266z" fill="#040000" /></svg>