<svg width="838" height="913" viewBox="0 0 838 913" fill="none" xmlns="http://www.w3.org/2000/svg">
<path d="M303.667 3.19998C282.067 9.46664 260.2 25.7333 250.067 43.0666C248.2 46.1333 237 71.8666 225.133 100.4L203.4 152L107.267 152.667L11.1334 153.333L7.0001 157.333C1.0001 163.067 0.0667648 168 0.600098 193.6C1.0001 214.267 1.26676 216.8 3.8001 220.267C9.53343 228 12.6001 228.667 46.0668 228.667H76.3334V514.4C76.3334 704 76.7334 803.867 77.6668 811.333C79.5334 826 82.4668 837.467 87.1334 849.067C96.2001 870.8 116.333 894.133 134.333 903.6C153.133 913.333 131.133 912.667 418.067 912.667C600.2 912.667 678.333 912.267 683.267 911.2C701.267 907.467 720.067 894.533 733.8 876.4C748.467 856.933 757.533 834.133 760.333 809.333C761.133 801.6 761.667 696.667 761.667 512.933V228.667H792.067C825.4 228.667 828.467 228 834.2 220.267C836.733 216.8 837 214.267 837.4 193.6C837.933 168 837 163.067 831 157.333L826.867 153.333L730.733 152.667L634.6 152L612.867 100.4C601 71.8666 589.8 46.1333 587.933 43.0666C580.2 29.8666 566.2 17.6 548.867 8.93331C531.933 0.399977 535.267 0.666644 418.2 0.799977C320.867 0.799977 311 1.06664 303.667 3.19998ZM520.2 80.2666C523.133 83.0666 527.667 92.5333 537.667 116.933C545 135.067 551 150.533 551 151.2C551 152.267 511.133 152.667 419 152.667C330.333 152.667 287 152.267 287 151.333C287 150.533 293.267 134.8 301 116.267C310.333 93.7333 316.067 81.7333 318.467 79.6L321.8 76.6666H419H516.333L520.2 80.2666ZM685.667 511.6C685.667 700.533 685.133 797.6 684.2 803.333C682.733 813.333 676.467 827.733 671.4 833.067L667.8 836.667H419H170.2L166.6 833.067C161.533 827.733 155.267 813.333 153.8 803.333C152.867 797.6 152.333 700.533 152.333 511.6V228.667H419H685.667V511.6Z" fill="black"/>
<path d="M242.867 343.2C236.2 345.333 233.4 347.6 230.867 353.067C228.467 358.533 228.334 364.8 228.334 532.267C228.334 724.533 227.8 713.333 236.867 719.733C240.734 722.4 242.734 722.667 264.2 723.067C290.867 723.6 297.267 722.267 301.8 714.8C304.2 710.8 304.334 705.6 304.334 532.4V354.133L300.2 349.467C297.934 346.8 293.934 344.133 291.267 343.333C285.534 341.867 248.067 341.733 242.867 343.2Z" fill="black"/>
<path d="M394.867 343.2C388.733 345.2 385.667 347.333 383.4 351.733C381.133 355.733 381 366.533 381 532.667C381 700.8 381.133 709.6 383.4 713.733C387.8 721.733 393.667 723.333 419 723.333C444.333 723.333 450.2 721.733 454.6 713.733C456.867 709.6 457 700.8 457 532.667C457 366.267 456.867 355.733 454.6 351.733C450.333 343.867 446.333 342.667 421 342.4C408.6 342.267 396.733 342.667 394.867 343.2Z" fill="black"/>
<path d="M546.2 343.467C543.8 344.133 540.067 346.8 537.8 349.333L533.667 354.133V532.267C533.667 709.2 533.667 710.4 536.334 714.8C541 722.267 547 723.6 573.8 723.067C595.267 722.667 597.267 722.4 601.134 719.733C610.2 713.333 609.667 724.533 609.667 532.267C609.667 364.667 609.534 358.533 607.134 353.067C602.867 343.867 599.4 342.667 573 342.4C560.6 342.267 548.467 342.667 546.2 343.467Z" fill="black"/>
</svg>
